<svg viewBox="0 0 1024 1024" version="1.1" xmlns="http://www.w3.org/2000/svg" width="32" height="32">
    <path
        d="M512 339.2c-25.6 0-44.8 12.8-51.2 32-19.2 0-25.6-6.4-25.6-6.4V211.2h-384v384h377.6V441.6s6.4-6.4 25.6-6.4c19.2 12.8 38.4 25.6 57.6 25.6 32 0 64-25.6 64-64 0-32-25.6-57.6-64-57.6z"
        fill="#7EC8EF"></path>
    <path
        d="M832 486.4c-6.4-19.2 6.4-25.6 6.4-25.6l147.2-19.2-44.8-377.6-384 44.8 19.2 153.6c6.4 0 12.8 6.4 25.6 6.4 6.4-19.2 32-32 51.2-32 32 0 64 25.6 64 57.6s-25.6 64-57.6 64c-25.6 0-44.8-12.8-57.6-25.6-6.4 0-19.2 0-19.2 6.4l19.2 153.6 153.6-19.2s6.4 6.4 12.8 25.6c-19.2 12.8-25.6 32-25.6 57.6 6.4 32 32 57.6 70.4 57.6 32-6.4 57.6-32 57.6-70.4 0-32-19.2-44.8-38.4-57.6z"
        fill="#10BDC6"></path>
    <path
        d="M697.6 608c0 6.4-6.4 12.8-6.4 25.6 19.2 12.8 32 32 25.6 57.6 0 32-32 64-64 57.6-32 0-64-32-57.6-64 0-25.6 12.8-44.8 32-51.2 0-12.8 0-19.2-6.4-25.6l-147.2-12.8-12.8 147.2c6.4 0 12.8 6.4 19.2 6.4 12.8-19.2 32-25.6 57.6-25.6 32 6.4 57.6 32 57.6 70.4-6.4 32-32 57.6-70.4 57.6-25.6 0-44.8-19.2-51.2-38.4h-19.2l-12.8 153.6 371.2 25.6 25.6-371.2-140.8-12.8z"
        fill="#FDD161"></path>
    <path
        d="M512 723.2c-25.6 0-44.8 12.8-51.2 32-19.2 0-25.6-6.4-25.6-6.4V595.2H281.6s-6.4-6.4-6.4-25.6c19.2-12.8 32-32 32-51.2 0-32-25.6-64-64-64-32 0-64 25.6-64 64 0 25.6 12.8 44.8 32 51.2 0 19.2-6.4 25.6-6.4 25.6H51.2v384h377.6v-160s6.4-6.4 25.6-6.4c19.2 19.2 38.4 32 57.6 32 32 0 64-25.6 64-64 0-32-25.6-57.6-64-57.6z"
        fill="#D14E4E"></path>
</svg>